solid OpenSCAD_Model
  facet normal -1 0 0
    outer loop
      vertex -7 -19 -11
      vertex -7 -45 -11
      vertex -7 -19 -4
    endloop
  endfacet
  facet normal -1 0 0
    outer loop
      vertex -7 -19 -4
      vertex -7 -45 -11
      vertex -7 -45 -4
    endloop
  endfacet
  facet normal 0 -2.22045e-16 -1
    outer loop
      vertex -7 -19 -11
      vertex -4.87316 -19.4878 -11
      vertex -7 -45 -11
    endloop
  endfacet
  facet normal 0 -2.22045e-16 -1
    outer loop
      vertex -7 -19 -11
      vertex -4.76947 -19 -11
      vertex -4.87316 -19.4878 -11
    endloop
  endfacet
  facet normal 0 -2.22045e-16 -1
    outer loop
      vertex -2.89826 -42.3904 -11
      vertex -7 -45 -11
      vertex -2.29236 -41.8448 -11
    endloop
  endfacet
  facet normal 0 -2.22045e-16 -1
    outer loop
      vertex -7 -45 -11
      vertex -4.87316 -20.5122 -11
      vertex -4.66018 -21.5142 -11
    endloop
  endfacet
  facet normal 0 -2.22045e-16 -1
    outer loop
      vertex -4.66018 -21.5142 -11
      vertex -4.24352 -22.45 -11
      vertex -7 -45 -11
    endloop
  endfacet
  facet normal 0 -2.22045e-16 -1
    outer loop
      vertex -4.24352 -22.45 -11
      vertex -3.64141 -23.2787 -11
      vertex -7 -45 -11
    endloop
  endfacet
  facet normal 0 -2.22045e-16 -1
    outer loop
      vertex -3.64141 -23.2787 -11
      vertex -2.88015 -23.9642 -11
      vertex -7 -45 -11
    endloop
  endfacet
  facet normal 0 -2.22045e-16 -1
    outer loop
      vertex -2.88015 -23.9642 -11
      vertex -1.99301 -24.4764 -11
      vertex -7 -45 -11
    endloop
  endfacet
  facet normal 0 -2.22045e-16 -1
    outer loop
      vertex -1.99301 -24.4764 -11
      vertex -1.01877 -24.7929 -11
      vertex -7 -45 -11
    endloop
  endfacet
  facet normal 0 -2.22045e-16 -1
    outer loop
      vertex -0.8 -39.35 -11
      vertex -2.29236 -41.8448 -11
      vertex -7 -45 -11
    endloop
  endfacet
  facet normal 0 -2.22045e-16 -1
    outer loop
      vertex -0.8 -39.35 -11
      vertex -7 -45 -11
      vertex -0.8 -26.5 -11
    endloop
  endfacet
  facet normal 0 -2.22045e-16 -1
    outer loop
      vertex 0.7 -39.35 -11
      vertex -1.58627 -41.4372 -11
      vertex -0.8 -39.35 -11
    endloop
  endfacet
  facet normal 0 -2.22045e-16 -1
    outer loop
      vertex 4.66018 -21.5142 -11
      vertex 7 -19 -11
      vertex 4.24352 -22.45 -11
    endloop
  endfacet
  facet normal 0 -2.22045e-16 -1
    outer loop
      vertex 4.87316 -20.5122 -11
      vertex 7 -19 -11
      vertex 4.66018 -21.5142 -11
    endloop
  endfacet
  facet normal 0 -2.22045e-16 -1
    outer loop
      vertex 4.87316 -19.4878 -11
      vertex 4.76947 -19 -11
      vertex 7 -19 -11
    endloop
  endfacet
  facet normal 0 -2.22045e-16 -1
    outer loop
      vertex 4.87316 -19.4878 -11
      vertex 7 -19 -11
      vertex 4.87316 -20.5122 -11
    endloop
  endfacet
  facet normal 0 -2.22045e-16 -1
    outer loop
      vertex 3.87864 -45 -11
      vertex 7 -19 -11
      vertex 7 -45 -11
    endloop
  endfacet
  facet normal 0 -2.22045e-16 -1
    outer loop
      vertex 3.87864 -44.5923 -11
      vertex 7 -19 -11
      vertex 3.87864 -45 -11
    endloop
  endfacet
  facet normal 0 -2.22045e-16 -1
    outer loop
      vertex 3.70912 -43.7948 -11
      vertex 7 -19 -11
      vertex 3.87864 -44.5923 -11
    endloop
  endfacet
  facet normal 0 -2.22045e-16 -1
    outer loop
      vertex 3.3775 -43.05 -11
      vertex 7 -19 -11
      vertex 3.70912 -43.7948 -11
    endloop
  endfacet
  facet normal 0 -2.22045e-16 -1
    outer loop
      vertex -0.8 -26.5 -11
      vertex 1.01877 -24.7929 -11
      vertex 0.7 -26.5 -11
    endloop
  endfacet
  facet normal 0 -2.22045e-16 -1
    outer loop
      vertex 2.89827 -42.3904 -11
      vertex 7 -19 -11
      vertex 3.3775 -43.05 -11
    endloop
  endfacet
  facet normal 0 -2.22045e-16 -1
    outer loop
      vertex 2.29236 -41.8448 -11
      vertex 7 -19 -11
      vertex 2.89827 -42.3904 -11
    endloop
  endfacet
  facet normal 0 -2.22045e-16 -1
    outer loop
      vertex 1.58627 -41.4372 -11
      vertex 7 -19 -11
      vertex 2.29236 -41.8448 -11
    endloop
  endfacet
  facet normal 0 -2.22045e-16 -1
    outer loop
      vertex 0.810856 -41.1852 -11
      vertex 7 -19 -11
      vertex 1.58627 -41.4372 -11
    endloop
  endfacet
  facet normal 0 -2.22045e-16 -1
    outer loop
      vertex 0.7 -39.35 -11
      vertex 7 -19 -11
      vertex 0.810856 -41.1852 -11
    endloop
  endfacet
  facet normal 0 -2.22045e-16 -1
    outer loop
      vertex 0.7 -26.5 -11
      vertex 3.64141 -23.2787 -11
      vertex 0.7 -39.35 -11
    endloop
  endfacet
  facet normal 0 -2.22045e-16 -1
    outer loop
      vertex 0.7 -39.35 -11
      vertex -0.810856 -41.1852 -11
      vertex -1.58627 -41.4372 -11
    endloop
  endfacet
  facet normal 0 -2.22045e-16 -1
    outer loop
      vertex -3.3775 -43.05 -11
      vertex -7 -45 -11
      vertex -2.89826 -42.3904 -11
    endloop
  endfacet
  facet normal 0 -2.22045e-16 -1
    outer loop
      vertex -3.70912 -43.7948 -11
      vertex -7 -45 -11
      vertex -3.3775 -43.05 -11
    endloop
  endfacet
  facet normal 0 -2.22045e-16 -1
    outer loop
      vertex -3.87863 -44.5923 -11
      vertex -7 -45 -11
      vertex -3.70912 -43.7948 -11
    endloop
  endfacet
  facet normal 0 -2.22045e-16 -1
    outer loop
      vertex 0.7 -26.5 -11
      vertex 2.88015 -23.9642 -11
      vertex 3.64141 -23.2787 -11
    endloop
  endfacet
  facet normal 0 -2.22045e-16 -1
    outer loop
      vertex -3.87863 -45 -11
      vertex -7 -45 -11
      vertex -3.87863 -44.5923 -11
    endloop
  endfacet
  facet normal 0 -2.22045e-16 -1
    outer loop
      vertex -0.8 -26.5 -11
      vertex 0 -24.9 -11
      vertex 1.01877 -24.7929 -11
    endloop
  endfacet
  facet normal 0 -2.22045e-16 -1
    outer loop
      vertex -1.01877 -24.7929 -11
      vertex 0 -24.9 -11
      vertex -0.8 -26.5 -11
    endloop
  endfacet
  facet normal 0 -2.22045e-16 -1
    outer loop
      vertex -1.01877 -24.7929 -11
      vertex -0.8 -26.5 -11
      vertex -7 -45 -11
    endloop
  endfacet
  facet normal 0 -2.22045e-16 -1
    outer loop
      vertex 0.7 -39.35 -11
      vertex 8.88178e-16 -41.1 -11
      vertex -0.810856 -41.1852 -11
    endloop
  endfacet
  facet normal 0 -2.22045e-16 -1
    outer loop
      vertex -2.29236 -41.8448 -11
      vertex -0.8 -39.35 -11
      vertex -1.58627 -41.4372 -11
    endloop
  endfacet
  facet normal 0 -2.22045e-16 -1
    outer loop
      vertex 3.64141 -23.2787 -11
      vertex 7 -19 -11
      vertex 0.7 -39.35 -11
    endloop
  endfacet
  facet normal 0 -2.22045e-16 -1
    outer loop
      vertex 8.88178e-16 -41.1 -11
      vertex 0.7 -39.35 -11
      vertex 0.810856 -41.1852 -11
    endloop
  endfacet
  facet normal 0 -2.22045e-16 -1
    outer loop
      vertex 1.01877 -24.7929 -11
      vertex 1.99301 -24.4764 -11
      vertex 0.7 -26.5 -11
    endloop
  endfacet
  facet normal 0 -2.22045e-16 -1
    outer loop
      vertex 0.7 -26.5 -11
      vertex 1.99301 -24.4764 -11
      vertex 2.88015 -23.9642 -11
    endloop
  endfacet
  facet normal 0 -2.22045e-16 -1
    outer loop
      vertex -4.87316 -20.5122 -11
      vertex -7 -45 -11
      vertex -4.87316 -19.4878 -11
    endloop
  endfacet
  facet normal 0 -2.22045e-16 -1
    outer loop
      vertex 3.64141 -23.2787 -11
      vertex 4.24352 -22.45 -11
      vertex 7 -19 -11
    endloop
  endfacet
  facet normal 0 1 -2.22045e-16
    outer loop
      vertex -7 -19 -11
      vertex -7 -19 -4
      vertex -4.76947 -19 -11
    endloop
  endfacet
  facet normal 0 1 -2.22045e-16
    outer loop
      vertex -4.76947 -19 -11
      vertex -7 -19 -4
      vertex -4.76947 -19 -4
    endloop
  endfacet
  facet normal 0 2.22045e-16 1
    outer loop
      vertex -4.87316 -19.4878 -4
      vertex -7 -19 -4
      vertex -7 -45 -4
    endloop
  endfacet
  facet normal 0 2.22045e-16 1
    outer loop
      vertex -4.87316 -20.5122 -4
      vertex -4.87316 -19.4878 -4
      vertex -7 -45 -4
    endloop
  endfacet
  facet normal 0 2.22045e-16 1
    outer loop
      vertex -3.45 -26.5 -4
      vertex -2.88015 -23.9642 -4
      vertex -3.64141 -23.2787 -4
    endloop
  endfacet
  facet normal 0 2.22045e-16 1
    outer loop
      vertex -4.66018 -21.5142 -4
      vertex -3.87863 -44.5923 -4
      vertex -3.70912 -43.7948 -4
    endloop
  endfacet
  facet normal 0 2.22045e-16 1
    outer loop
      vertex -4.66018 -21.5142 -4
      vertex -4.87316 -20.5122 -4
      vertex -3.87863 -45 -4
    endloop
  endfacet
  facet normal 0 2.22045e-16 1
    outer loop
      vertex 3 -39.35 -4
      vertex 3.3775 -43.05 -4
      vertex 3.70912 -43.7948 -4
    endloop
  endfacet
  facet normal 0 2.22045e-16 1
    outer loop
      vertex 3 -39.35 -4
      vertex 2.89827 -42.3904 -4
      vertex 3.3775 -43.05 -4
    endloop
  endfacet
  facet normal 0 2.22045e-16 1
    outer loop
      vertex 3 -26.5 -4
      vertex 3 -39.35 -4
      vertex 7 -45 -4
    endloop
  endfacet
  facet normal 0 2.22045e-16 1
    outer loop
      vertex -4.24352 -22.45 -4
      vertex -3.3775 -43.05 -4
      vertex -3.45 -39.35 -4
    endloop
  endfacet
  facet normal 0 2.22045e-16 1
    outer loop
      vertex -3.45 -26.5 -4
      vertex 1.99301 -24.4764 -4
      vertex 1.01877 -24.7929 -4
    endloop
  endfacet
  facet normal 0 2.22045e-16 1
    outer loop
      vertex -3.45 -26.5 -4
      vertex 1.01877 -24.7929 -4
      vertex 1.55431e-15 -24.9 -4
    endloop
  endfacet
  facet normal 0 2.22045e-16 1
    outer loop
      vertex -3.45 -26.5 -4
      vertex 1.55431e-15 -24.9 -4
      vertex -1.01877 -24.7929 -4
    endloop
  endfacet
  facet normal 0 2.22045e-16 1
    outer loop
      vertex -3.64141 -23.2787 -4
      vertex -4.24352 -22.45 -4
      vertex -3.45 -26.5 -4
    endloop
  endfacet
  facet normal 0 2.22045e-16 1
    outer loop
      vertex -4.24352 -22.45 -4
      vertex -4.66018 -21.5142 -4
      vertex -3.3775 -43.05 -4
    endloop
  endfacet
  facet normal 0 2.22045e-16 1
    outer loop
      vertex 7 -45 -4
      vertex 3.70912 -43.7948 -4
      vertex 3.87864 -44.5923 -4
    endloop
  endfacet
  facet normal 0 2.22045e-16 1
    outer loop
      vertex 7 -45 -4
      vertex 3.87864 -44.5923 -4
      vertex 3.87864 -45 -4
    endloop
  endfacet
  facet normal 0 2.22045e-16 1
    outer loop
      vertex 7 -19 -4
      vertex 4.87316 -19.4878 -4
      vertex 7 -45 -4
    endloop
  endfacet
  facet normal 0 2.22045e-16 1
    outer loop
      vertex 7 -19 -4
      vertex 4.76947 -19 -4
      vertex 4.87316 -19.4878 -4
    endloop
  endfacet
  facet normal 0 2.22045e-16 1
    outer loop
      vertex 4.87316 -20.5122 -4
      vertex 4.66018 -21.5142 -4
      vertex 7 -45 -4
    endloop
  endfacet
  facet normal 0 2.22045e-16 1
    outer loop
      vertex 4.66018 -21.5142 -4
      vertex 4.24352 -22.45 -4
      vertex 7 -45 -4
    endloop
  endfacet
  facet normal 0 2.22045e-16 1
    outer loop
      vertex 4.24352 -22.45 -4
      vertex 3.64141 -23.2787 -4
      vertex 7 -45 -4
    endloop
  endfacet
  facet normal 0 2.22045e-16 1
    outer loop
      vertex 3.64141 -23.2787 -4
      vertex 2.88015 -23.9642 -4
      vertex 7 -45 -4
    endloop
  endfacet
  facet normal 0 2.22045e-16 1
    outer loop
      vertex -3.45 -26.5 -4
      vertex 3 -26.5 -4
      vertex 1.99301 -24.4764 -4
    endloop
  endfacet
  facet normal 0 2.22045e-16 1
    outer loop
      vertex -3.45 -26.5 -4
      vertex -1.99301 -24.4764 -4
      vertex -2.88015 -23.9642 -4
    endloop
  endfacet
  facet normal 0 2.22045e-16 1
    outer loop
      vertex -3.3775 -43.05 -4
      vertex -4.66018 -21.5142 -4
      vertex -3.70912 -43.7948 -4
    endloop
  endfacet
  facet normal 0 2.22045e-16 1
    outer loop
      vertex -3.87863 -45 -4
      vertex -4.87316 -20.5122 -4
      vertex -7 -45 -4
    endloop
  endfacet
  facet normal 0 2.22045e-16 1
    outer loop
      vertex -3.45 -39.35 -4
      vertex -3.45 -26.5 -4
      vertex -4.24352 -22.45 -4
    endloop
  endfacet
  facet normal 0 2.22045e-16 1
    outer loop
      vertex -4.76947 -19 -4
      vertex -7 -19 -4
      vertex -4.87316 -19.4878 -4
    endloop
  endfacet
  facet normal 0 2.22045e-16 1
    outer loop
      vertex -2.89826 -42.3904 -4
      vertex -3.45 -39.35 -4
      vertex -3.3775 -43.05 -4
    endloop
  endfacet
  facet normal 0 2.22045e-16 1
    outer loop
      vertex -4.66018 -21.5142 -4
      vertex -3.87863 -45 -4
      vertex -3.87863 -44.5923 -4
    endloop
  endfacet
  facet normal 0 2.22045e-16 1
    outer loop
      vertex -3.45 -26.5 -4
      vertex -1.01877 -24.7929 -4
      vertex -1.99301 -24.4764 -4
    endloop
  endfacet
  facet normal 0 2.22045e-16 1
    outer loop
      vertex 2.88015 -23.9642 -4
      vertex 3 -26.5 -4
      vertex 7 -45 -4
    endloop
  endfacet
  facet normal 0 2.22045e-16 1
    outer loop
      vertex 2.88015 -23.9642 -4
      vertex 1.99301 -24.4764 -4
      vertex 3 -26.5 -4
    endloop
  endfacet
  facet normal 0 2.22045e-16 1
    outer loop
      vertex 7 -45 -4
      vertex 3 -39.35 -4
      vertex 3.70912 -43.7948 -4
    endloop
  endfacet
  facet normal 0 2.22045e-16 1
    outer loop
      vertex 4.87316 -19.4878 -4
      vertex 4.87316 -20.5122 -4
      vertex 7 -45 -4
    endloop
  endfacet
  facet normal 0 2.22045e-16 1
    outer loop
      vertex 3 -39.35 -4
      vertex 2.29236 -41.8448 -4
      vertex 2.89827 -42.3904 -4
    endloop
  endfacet
  facet normal 0 2.22045e-16 1
    outer loop
      vertex 3 -39.35 -4
      vertex 1.58627 -41.4372 -4
      vertex 2.29236 -41.8448 -4
    endloop
  endfacet
  facet normal 0 2.22045e-16 1
    outer loop
      vertex 3 -39.35 -4
      vertex 0.810856 -41.1852 -4
      vertex 1.58627 -41.4372 -4
    endloop
  endfacet
  facet normal 0 2.22045e-16 1
    outer loop
      vertex 3 -39.35 -4
      vertex 2.44249e-15 -41.1 -4
      vertex 0.810856 -41.1852 -4
    endloop
  endfacet
  facet normal 0 2.22045e-16 1
    outer loop
      vertex 3 -39.35 -4
      vertex -0.810856 -41.1852 -4
      vertex 2.44249e-15 -41.1 -4
    endloop
  endfacet
  facet normal 0 2.22045e-16 1
    outer loop
      vertex 3 -39.35 -4
      vertex -1.58627 -41.4372 -4
      vertex -0.810856 -41.1852 -4
    endloop
  endfacet
  facet normal 0 2.22045e-16 1
    outer loop
      vertex -2.29236 -41.8448 -4
      vertex -3.45 -39.35 -4
      vertex -2.89826 -42.3904 -4
    endloop
  endfacet
  facet normal 0 2.22045e-16 1
    outer loop
      vertex -1.58627 -41.4372 -4
      vertex -3.45 -39.35 -4
      vertex -2.29236 -41.8448 -4
    endloop
  endfacet
  facet normal 0 2.22045e-16 1
    outer loop
      vertex 3 -39.35 -4
      vertex -3.45 -39.35 -4
      vertex -1.58627 -41.4372 -4
    endloop
  endfacet
  facet normal 0 -1 2.22045e-16
    outer loop
      vertex -7 -45 -4
      vertex -7 -45 -11
      vertex -3.87863 -45 -11
    endloop
  endfacet
  facet normal 0 -1 2.22045e-16
    outer loop
      vertex -3.87863 -45 -4
      vertex -7 -45 -4
      vertex -3.87863 -45 -11
    endloop
  endfacet
  facet normal 1 0 -2.22045e-16
    outer loop
      vertex -3.87863 -44.5923 -4
      vertex -3.87863 -45 -4
      vertex -3.87863 -45 -11
    endloop
  endfacet
  facet normal 1 0 -2.22045e-16
    outer loop
      vertex -3.87863 -44.5923 -11
      vertex -3.87863 -44.5923 -4
      vertex -3.87863 -45 -11
    endloop
  endfacet
  facet normal 0.978148 -0.207912 -2.17192e-16
    outer loop
      vertex -3.70912 -43.7948 -11
      vertex -3.70912 -43.7948 -4
      vertex -3.87863 -44.5923 -4
    endloop
  endfacet
  facet normal 0.978148 -0.207912 -2.17192e-16
    outer loop
      vertex -3.87863 -44.5923 -11
      vertex -3.70912 -43.7948 -11
      vertex -3.87863 -44.5923 -4
    endloop
  endfacet
  facet normal 0.913546 -0.406736 -2.02848e-16
    outer loop
      vertex -3.3775 -43.05 -11
      vertex -3.3775 -43.05 -4
      vertex -3.70912 -43.7948 -4
    endloop
  endfacet
  facet normal 0.913546 -0.406736 -2.02848e-16
    outer loop
      vertex -3.70912 -43.7948 -11
      vertex -3.3775 -43.05 -11
      vertex -3.70912 -43.7948 -4
    endloop
  endfacet
  facet normal 0.809017 -0.587785 -1.79638e-16
    outer loop
      vertex -2.89826 -42.3904 -11
      vertex -2.89826 -42.3904 -4
      vertex -3.3775 -43.05 -4
    endloop
  endfacet
  facet normal 0.809017 -0.587785 -1.79638e-16
    outer loop
      vertex -3.3775 -43.05 -11
      vertex -2.89826 -42.3904 -11
      vertex -3.3775 -43.05 -4
    endloop
  endfacet
  facet normal 0.66913 -0.743145 -1.48577e-16
    outer loop
      vertex -2.29236 -41.8448 -11
      vertex -2.29236 -41.8448 -4
      vertex -2.89826 -42.3904 -4
    endloop
  endfacet
  facet normal 0.66913 -0.743145 -1.48577e-16
    outer loop
      vertex -2.89826 -42.3904 -11
      vertex -2.29236 -41.8448 -11
      vertex -2.89826 -42.3904 -4
    endloop
  endfacet
  facet normal 0.5 -0.866025 -1.11022e-16
    outer loop
      vertex -1.58627 -41.4372 -11
      vertex -1.58627 -41.4372 -4
      vertex -2.29236 -41.8448 -4
    endloop
  endfacet
  facet normal 0.5 -0.866025 -1.11022e-16
    outer loop
      vertex -2.29236 -41.8448 -11
      vertex -1.58627 -41.4372 -11
      vertex -2.29236 -41.8448 -4
    endloop
  endfacet
  facet normal 0.309018 -0.951056 -6.86157e-17
    outer loop
      vertex -0.810856 -41.1852 -11
      vertex -0.810856 -41.1852 -4
      vertex -1.58627 -41.4372 -4
    endloop
  endfacet
  facet normal 0.309018 -0.951056 -6.86157e-17
    outer loop
      vertex -1.58627 -41.4372 -11
      vertex -0.810856 -41.1852 -11
      vertex -1.58627 -41.4372 -4
    endloop
  endfacet
  facet normal 0.104528 -0.994522 -2.32099e-17
    outer loop
      vertex 8.88178e-16 -41.1 -11
      vertex 2.44249e-15 -41.1 -4
      vertex -0.810856 -41.1852 -4
    endloop
  endfacet
  facet normal 0.104528 -0.994522 -2.32099e-17
    outer loop
      vertex -0.810856 -41.1852 -11
      vertex 8.88178e-16 -41.1 -11
      vertex -0.810856 -41.1852 -4
    endloop
  endfacet
  facet normal -0.104528 -0.994522 2.32099e-17
    outer loop
      vertex 0.810856 -41.1852 -11
      vertex 0.810856 -41.1852 -4
      vertex 2.44249e-15 -41.1 -4
    endloop
  endfacet
  facet normal -0.104528 -0.994522 2.32099e-17
    outer loop
      vertex 8.88178e-16 -41.1 -11
      vertex 0.810856 -41.1852 -11
      vertex 2.44249e-15 -41.1 -4
    endloop
  endfacet
  facet normal -0.309018 -0.951056 6.86157e-17
    outer loop
      vertex 1.58627 -41.4372 -11
      vertex 1.58627 -41.4372 -4
      vertex 0.810856 -41.1852 -4
    endloop
  endfacet
  facet normal -0.309018 -0.951056 6.86157e-17
    outer loop
      vertex 0.810856 -41.1852 -11
      vertex 1.58627 -41.4372 -11
      vertex 0.810856 -41.1852 -4
    endloop
  endfacet
  facet normal -0.5 -0.866025 1.11022e-16
    outer loop
      vertex 2.29236 -41.8448 -11
      vertex 2.29236 -41.8448 -4
      vertex 1.58627 -41.4372 -4
    endloop
  endfacet
  facet normal -0.5 -0.866025 1.11022e-16
    outer loop
      vertex 1.58627 -41.4372 -11
      vertex 2.29236 -41.8448 -11
      vertex 1.58627 -41.4372 -4
    endloop
  endfacet
  facet normal -0.66913 -0.743145 1.48577e-16
    outer loop
      vertex 2.89827 -42.3904 -11
      vertex 2.89827 -42.3904 -4
      vertex 2.29236 -41.8448 -4
    endloop
  endfacet
  facet normal -0.66913 -0.743145 1.48577e-16
    outer loop
      vertex 2.29236 -41.8448 -11
      vertex 2.89827 -42.3904 -11
      vertex 2.29236 -41.8448 -4
    endloop
  endfacet
  facet normal -0.809017 -0.587785 1.79638e-16
    outer loop
      vertex 3.3775 -43.05 -4
      vertex 2.89827 -42.3904 -4
      vertex 3.3775 -43.05 -11
    endloop
  endfacet
  facet normal -0.809017 -0.587785 1.79638e-16
    outer loop
      vertex 3.3775 -43.05 -11
      vertex 2.89827 -42.3904 -4
      vertex 2.89827 -42.3904 -11
    endloop
  endfacet
  facet normal -0.913546 -0.406736 2.02848e-16
    outer loop
      vertex 3.70912 -43.7948 -4
      vertex 3.3775 -43.05 -4
      vertex 3.70912 -43.7948 -11
    endloop
  endfacet
  facet normal -0.913546 -0.406736 2.02848e-16
    outer loop
      vertex 3.70912 -43.7948 -11
      vertex 3.3775 -43.05 -4
      vertex 3.3775 -43.05 -11
    endloop
  endfacet
  facet normal -0.978148 -0.207912 2.17192e-16
    outer loop
      vertex 3.87864 -44.5923 -4
      vertex 3.70912 -43.7948 -4
      vertex 3.87864 -44.5923 -11
    endloop
  endfacet
  facet normal -0.978148 -0.207912 2.17192e-16
    outer loop
      vertex 3.87864 -44.5923 -11
      vertex 3.70912 -43.7948 -4
      vertex 3.70912 -43.7948 -11
    endloop
  endfacet
  facet normal -1 0 2.22045e-16
    outer loop
      vertex 3.87864 -45 -4
      vertex 3.87864 -44.5923 -4
      vertex 3.87864 -45 -11
    endloop
  endfacet
  facet normal -1 0 2.22045e-16
    outer loop
      vertex 3.87864 -45 -11
      vertex 3.87864 -44.5923 -4
      vertex 3.87864 -44.5923 -11
    endloop
  endfacet
  facet normal 0 -1 2.22045e-16
    outer loop
      vertex 3.87864 -45 -4
      vertex 3.87864 -45 -11
      vertex 7 -45 -11
    endloop
  endfacet
  facet normal 0 -1 2.22045e-16
    outer loop
      vertex 7 -45 -4
      vertex 3.87864 -45 -4
      vertex 7 -45 -11
    endloop
  endfacet
  facet normal 1 0 0
    outer loop
      vertex 7 -45 -11
      vertex 7 -19 -11
      vertex 7 -19 -4
    endloop
  endfacet
  facet normal 1 0 0
    outer loop
      vertex 7 -45 -4
      vertex 7 -45 -11
      vertex 7 -19 -4
    endloop
  endfacet
  facet normal 0 1 -2.22045e-16
    outer loop
      vertex 4.76947 -19 -11
      vertex 4.76947 -19 -4
      vertex 7 -19 -11
    endloop
  endfacet
  facet normal 0 1 -2.22045e-16
    outer loop
      vertex 7 -19 -11
      vertex 4.76947 -19 -4
      vertex 7 -19 -4
    endloop
  endfacet
  facet normal -0.978148 -0.207911 2.17192e-16
    outer loop
      vertex 4.87316 -19.4878 -4
      vertex 4.76947 -19 -4
      vertex 4.87316 -19.4878 -11
    endloop
  endfacet
  facet normal -0.978148 -0.207911 2.17192e-16
    outer loop
      vertex 4.87316 -19.4878 -11
      vertex 4.76947 -19 -4
      vertex 4.76947 -19 -11
    endloop
  endfacet
  facet normal -1 4.93038e-32 2.22045e-16
    outer loop
      vertex 4.87316 -20.5122 -4
      vertex 4.87316 -19.4878 -4
      vertex 4.87316 -20.5122 -11
    endloop
  endfacet
  facet normal -1 4.93038e-32 2.22045e-16
    outer loop
      vertex 4.87316 -20.5122 -11
      vertex 4.87316 -19.4878 -4
      vertex 4.87316 -19.4878 -11
    endloop
  endfacet
  facet normal -0.978148 0.207911 2.17192e-16
    outer loop
      vertex 4.87316 -20.5122 -4
      vertex 4.87316 -20.5122 -11
      vertex 4.66018 -21.5142 -4
    endloop
  endfacet
  facet normal -0.978148 0.207911 2.17192e-16
    outer loop
      vertex 4.66018 -21.5142 -4
      vertex 4.87316 -20.5122 -11
      vertex 4.66018 -21.5142 -11
    endloop
  endfacet
  facet normal -0.913545 0.406737 2.02848e-16
    outer loop
      vertex 4.66018 -21.5142 -4
      vertex 4.66018 -21.5142 -11
      vertex 4.24352 -22.45 -4
    endloop
  endfacet
  facet normal -0.913545 0.406737 2.02848e-16
    outer loop
      vertex 4.24352 -22.45 -4
      vertex 4.66018 -21.5142 -11
      vertex 4.24352 -22.45 -11
    endloop
  endfacet
  facet normal -0.809017 0.587785 1.79638e-16
    outer loop
      vertex 4.24352 -22.45 -4
      vertex 4.24352 -22.45 -11
      vertex 3.64141 -23.2787 -4
    endloop
  endfacet
  facet normal -0.809017 0.587785 1.79638e-16
    outer loop
      vertex 3.64141 -23.2787 -4
      vertex 4.24352 -22.45 -11
      vertex 3.64141 -23.2787 -11
    endloop
  endfacet
  facet normal -0.66913 0.743145 1.48577e-16
    outer loop
      vertex 3.64141 -23.2787 -4
      vertex 3.64141 -23.2787 -11
      vertex 2.88015 -23.9642 -4
    endloop
  endfacet
  facet normal -0.66913 0.743145 1.48577e-16
    outer loop
      vertex 2.88015 -23.9642 -4
      vertex 3.64141 -23.2787 -11
      vertex 2.88015 -23.9642 -11
    endloop
  endfacet
  facet normal -0.5 0.866025 1.11022e-16
    outer loop
      vertex 2.88015 -23.9642 -4
      vertex 2.88015 -23.9642 -11
      vertex 1.99301 -24.4764 -4
    endloop
  endfacet
  facet normal -0.5 0.866025 1.11022e-16
    outer loop
      vertex 1.99301 -24.4764 -4
      vertex 2.88015 -23.9642 -11
      vertex 1.99301 -24.4764 -11
    endloop
  endfacet
  facet normal -0.309016 0.951057 6.86154e-17
    outer loop
      vertex 1.99301 -24.4764 -4
      vertex 1.99301 -24.4764 -11
      vertex 1.01877 -24.7929 -4
    endloop
  endfacet
  facet normal -0.309016 0.951057 6.86154e-17
    outer loop
      vertex 1.01877 -24.7929 -4
      vertex 1.99301 -24.4764 -11
      vertex 1.01877 -24.7929 -11
    endloop
  endfacet
  facet normal -0.104529 0.994522 2.321e-17
    outer loop
      vertex 1.01877 -24.7929 -4
      vertex 1.01877 -24.7929 -11
      vertex 1.55431e-15 -24.9 -4
    endloop
  endfacet
  facet normal -0.104529 0.994522 2.321e-17
    outer loop
      vertex 1.55431e-15 -24.9 -4
      vertex 1.01877 -24.7929 -11
      vertex 0 -24.9 -11
    endloop
  endfacet
  facet normal 0.104529 0.994522 -2.321e-17
    outer loop
      vertex 1.55431e-15 -24.9 -4
      vertex 0 -24.9 -11
      vertex -1.01877 -24.7929 -4
    endloop
  endfacet
  facet normal 0.104529 0.994522 -2.321e-17
    outer loop
      vertex -1.01877 -24.7929 -4
      vertex 0 -24.9 -11
      vertex -1.01877 -24.7929 -11
    endloop
  endfacet
  facet normal 0.309016 0.951057 -6.86154e-17
    outer loop
      vertex -1.01877 -24.7929 -4
      vertex -1.01877 -24.7929 -11
      vertex -1.99301 -24.4764 -4
    endloop
  endfacet
  facet normal 0.309016 0.951057 -6.86154e-17
    outer loop
      vertex -1.99301 -24.4764 -4
      vertex -1.01877 -24.7929 -11
      vertex -1.99301 -24.4764 -11
    endloop
  endfacet
  facet normal 0.5 0.866025 -1.11022e-16
    outer loop
      vertex -1.99301 -24.4764 -4
      vertex -1.99301 -24.4764 -11
      vertex -2.88015 -23.9642 -4
    endloop
  endfacet
  facet normal 0.5 0.866025 -1.11022e-16
    outer loop
      vertex -2.88015 -23.9642 -4
      vertex -1.99301 -24.4764 -11
      vertex -2.88015 -23.9642 -11
    endloop
  endfacet
  facet normal 0.66913 0.743145 -1.48577e-16
    outer loop
      vertex -2.88015 -23.9642 -4
      vertex -2.88015 -23.9642 -11
      vertex -3.64141 -23.2787 -4
    endloop
  endfacet
  facet normal 0.66913 0.743145 -1.48577e-16
    outer loop
      vertex -3.64141 -23.2787 -4
      vertex -2.88015 -23.9642 -11
      vertex -3.64141 -23.2787 -11
    endloop
  endfacet
  facet normal 0.809017 0.587785 -1.79638e-16
    outer loop
      vertex -4.24352 -22.45 -4
      vertex -3.64141 -23.2787 -4
      vertex -3.64141 -23.2787 -11
    endloop
  endfacet
  facet normal 0.809017 0.587785 -1.79638e-16
    outer loop
      vertex -4.24352 -22.45 -11
      vertex -4.24352 -22.45 -4
      vertex -3.64141 -23.2787 -11
    endloop
  endfacet
  facet normal 0.913545 0.406737 -2.02848e-16
    outer loop
      vertex -4.66018 -21.5142 -4
      vertex -4.24352 -22.45 -4
      vertex -4.24352 -22.45 -11
    endloop
  endfacet
  facet normal 0.913545 0.406737 -2.02848e-16
    outer loop
      vertex -4.66018 -21.5142 -11
      vertex -4.66018 -21.5142 -4
      vertex -4.24352 -22.45 -11
    endloop
  endfacet
  facet normal 0.978148 0.207911 -2.17192e-16
    outer loop
      vertex -4.87316 -20.5122 -4
      vertex -4.66018 -21.5142 -4
      vertex -4.66018 -21.5142 -11
    endloop
  endfacet
  facet normal 0.978148 0.207911 -2.17192e-16
    outer loop
      vertex -4.87316 -20.5122 -11
      vertex -4.87316 -20.5122 -4
      vertex -4.66018 -21.5142 -11
    endloop
  endfacet
  facet normal 1 -4.93038e-32 -2.22045e-16
    outer loop
      vertex -4.87316 -19.4878 -4
      vertex -4.87316 -20.5122 -4
      vertex -4.87316 -20.5122 -11
    endloop
  endfacet
  facet normal 1 -4.93038e-32 -2.22045e-16
    outer loop
      vertex -4.87316 -19.4878 -11
      vertex -4.87316 -19.4878 -4
      vertex -4.87316 -20.5122 -11
    endloop
  endfacet
  facet normal 0.978148 -0.207911 -2.17192e-16
    outer loop
      vertex -4.76947 -19 -11
      vertex -4.76947 -19 -4
      vertex -4.87316 -19.4878 -4
    endloop
  endfacet
  facet normal 0.978148 -0.207911 -2.17192e-16
    outer loop
      vertex -4.87316 -19.4878 -11
      vertex -4.76947 -19 -11
      vertex -4.87316 -19.4878 -4
    endloop
  endfacet
  facet normal 1 0 0
    outer loop
      vertex -0.8 -26.5 -10
      vertex -0.8 -39.35 -10
      vertex -0.8 -39.35 -11
    endloop
  endfacet
  facet normal 1 0 0
    outer loop
      vertex -0.8 -26.5 -11
      vertex -0.8 -26.5 -10
      vertex -0.8 -39.35 -11
    endloop
  endfacet
  facet normal 0 -1 2.22045e-16
    outer loop
      vertex -0.8 -26.5 -10
      vertex -0.8 -26.5 -11
      vertex 0.7 -26.5 -11
    endloop
  endfacet
  facet normal 0 -1 2.22045e-16
    outer loop
      vertex 3 -26.5 -4
      vertex -0.8 -26.5 -10
      vertex 0.7 -26.5 -10
    endloop
  endfacet
  facet normal 0 -1 2.22045e-16
    outer loop
      vertex 0.7 -26.5 -10
      vertex -0.8 -26.5 -10
      vertex 0.7 -26.5 -11
    endloop
  endfacet
  facet normal 0 -1 2.22045e-16
    outer loop
      vertex 3 -26.5 -4
      vertex 0.7 -26.5 -10
      vertex 3 -26.5 -10
    endloop
  endfacet
  facet normal 0 -1 2.22045e-16
    outer loop
      vertex -3.45 -26.5 -4
      vertex -0.8 -26.5 -10
      vertex 3 -26.5 -4
    endloop
  endfacet
  facet normal 0 -1 2.22045e-16
    outer loop
      vertex -3.45 -26.5 -10
      vertex -0.8 -26.5 -10
      vertex -3.45 -26.5 -4
    endloop
  endfacet
  facet normal -1 0 0
    outer loop
      vertex 0.7 -39.35 -10
      vertex 0.7 -26.5 -10
      vertex 0.7 -39.35 -11
    endloop
  endfacet
  facet normal -1 0 0
    outer loop
      vertex 0.7 -39.35 -11
      vertex 0.7 -26.5 -10
      vertex 0.7 -26.5 -11
    endloop
  endfacet
  facet normal 0 1 -2.22045e-16
    outer loop
      vertex 3 -39.35 -4
      vertex 3 -39.35 -10
      vertex -3.45 -39.35 -4
    endloop
  endfacet
  facet normal 0 1 -2.22045e-16
    outer loop
      vertex -3.45 -39.35 -4
      vertex 3 -39.35 -10
      vertex 0.7 -39.35 -10
    endloop
  endfacet
  facet normal 0 1 -2.22045e-16
    outer loop
      vertex -3.45 -39.35 -4
      vertex 0.7 -39.35 -10
      vertex 0.7 -39.35 -11
    endloop
  endfacet
  facet normal 0 1 -2.22045e-16
    outer loop
      vertex -0.8 -39.35 -10
      vertex 0.7 -39.35 -11
      vertex -0.8 -39.35 -11
    endloop
  endfacet
  facet normal 0 1 -2.22045e-16
    outer loop
      vertex -3.45 -39.35 -4
      vertex 0.7 -39.35 -11
      vertex -0.8 -39.35 -10
    endloop
  endfacet
  facet normal 0 1 -2.22045e-16
    outer loop
      vertex -3.45 -39.35 -10
      vertex -3.45 -39.35 -4
      vertex -0.8 -39.35 -10
    endloop
  endfacet
  facet normal 1 0 0
    outer loop
      vertex -3.45 -26.5 -4
      vertex -3.45 -39.35 -4
      vertex -3.45 -39.35 -10
    endloop
  endfacet
  facet normal 1 0 0
    outer loop
      vertex -3.45 -26.5 -10
      vertex -3.45 -26.5 -4
      vertex -3.45 -39.35 -10
    endloop
  endfacet
  facet normal -1 0 0
    outer loop
      vertex 3 -39.35 -4
      vertex 3 -26.5 -4
      vertex 3 -39.35 -10
    endloop
  endfacet
  facet normal -1 0 0
    outer loop
      vertex 3 -39.35 -10
      vertex 3 -26.5 -4
      vertex 3 -26.5 -10
    endloop
  endfacet
  facet normal 0 2.22045e-16 1
    outer loop
      vertex -3.45 -39.35 -10
      vertex -0.8 -39.35 -10
      vertex -0.8 -26.5 -10
    endloop
  endfacet
  facet normal 0 2.22045e-16 1
    outer loop
      vertex -3.45 -26.5 -10
      vertex -3.45 -39.35 -10
      vertex -0.8 -26.5 -10
    endloop
  endfacet
  facet normal 0 2.22045e-16 1
    outer loop
      vertex 0.7 -39.35 -10
      vertex 3 -39.35 -10
      vertex 3 -26.5 -10
    endloop
  endfacet
  facet normal 0 2.22045e-16 1
    outer loop
      vertex 0.7 -26.5 -10
      vertex 0.7 -39.35 -10
      vertex 3 -26.5 -10
    endloop
  endfacet
endsolid OpenSCAD_Model
